<mxfile host="Electron" modified="2023-11-24T13:17:18.833Z" agent="Mozilla/5.0 (Windows NT 10.0; Win64; x64) AppleWebKit/537.36 (KHTML, like Gecko) draw.io/22.0.3 Chrome/114.0.5735.289 Electron/25.8.4 Safari/537.36" etag="usHRbMWsJrhaZdyqXLoM" version="22.0.3" type="device">
  <diagram name="Trang-1" id="NIQV9puHBk_IiYt71eVW">
    <mxGraphModel dx="863" dy="505" grid="1" gridSize="10" guides="1" tooltips="1" connect="1" arrows="1" fold="1" page="1" pageScale="1" pageWidth="850" pageHeight="1100" math="0" shadow="0">
      <root>
        <mxCell id="0" />
        <mxCell id="1" parent="0" />
        <mxCell id="rm6uVH4t2GQNLEcWgGYT-33" style="edgeStyle=orthogonalEdgeStyle;shape=connector;rounded=0;orthogonalLoop=1;jettySize=auto;html=1;exitX=1;exitY=0.5;exitDx=0;exitDy=0;entryX=0.5;entryY=0;entryDx=0;entryDy=0;labelBackgroundColor=default;strokeColor=default;align=center;verticalAlign=middle;fontFamily=Helvetica;fontSize=11;fontColor=default;endArrow=none;endFill=0;" parent="1" source="rm6uVH4t2GQNLEcWgGYT-2" target="rm6uVH4t2GQNLEcWgGYT-29" edge="1">
          <mxGeometry relative="1" as="geometry">
            <Array as="points">
              <mxPoint x="345" y="180" />
              <mxPoint x="230" y="180" />
            </Array>
          </mxGeometry>
        </mxCell>
        <mxCell id="rm6uVH4t2GQNLEcWgGYT-2" value="" style="pointerEvents=1;verticalLabelPosition=bottom;shadow=0;dashed=0;align=center;html=1;verticalAlign=top;shape=mxgraph.electrical.miscellaneous.batteryStack;rotation=90;" parent="1" vertex="1">
          <mxGeometry x="320" y="260" width="50" height="40" as="geometry" />
        </mxCell>
        <mxCell id="rm6uVH4t2GQNLEcWgGYT-5" value="" style="shape=waypoint;sketch=0;size=6;pointerEvents=1;points=[];fillColor=none;resizable=0;rotatable=0;perimeter=centerPerimeter;snapToPoint=1;fontFamily=Helvetica;fontSize=11;fontColor=default;" parent="1" vertex="1">
          <mxGeometry x="442.5" y="180" width="20" height="20" as="geometry" />
        </mxCell>
        <mxCell id="rm6uVH4t2GQNLEcWgGYT-8" value="" style="shape=waypoint;sketch=0;size=6;pointerEvents=1;points=[];fillColor=none;resizable=0;rotatable=0;perimeter=centerPerimeter;snapToPoint=1;fontFamily=Helvetica;fontSize=11;fontColor=default;" parent="1" vertex="1">
          <mxGeometry x="529.5" y="345" width="20" height="20" as="geometry" />
        </mxCell>
        <mxCell id="rm6uVH4t2GQNLEcWgGYT-12" value="" style="shape=waypoint;sketch=0;size=6;pointerEvents=1;points=[];fillColor=none;resizable=0;rotatable=0;perimeter=centerPerimeter;snapToPoint=1;fontFamily=Helvetica;fontSize=11;fontColor=default;" parent="1" vertex="1">
          <mxGeometry x="657.5" y="252.5" width="20" height="20" as="geometry" />
        </mxCell>
        <mxCell id="rm6uVH4t2GQNLEcWgGYT-14" value="&lt;span style=&quot;font-size: 14px; font-weight: normal;&quot;&gt;C&lt;/span&gt;" style="text;html=1;strokeColor=none;fillColor=none;align=center;verticalAlign=middle;whiteSpace=wrap;rounded=0;fontSize=14;fontFamily=Times New Roman;fontColor=default;fontStyle=1" parent="1" vertex="1">
          <mxGeometry x="440" y="160" width="25" height="20" as="geometry" />
        </mxCell>
        <mxCell id="rm6uVH4t2GQNLEcWgGYT-17" value="&lt;span style=&quot;font-size: 14px; font-weight: normal;&quot;&gt;E&lt;/span&gt;" style="text;html=1;strokeColor=none;fillColor=none;align=center;verticalAlign=middle;whiteSpace=wrap;rounded=0;fontSize=14;fontFamily=Times New Roman;fontColor=default;fontStyle=3" parent="1" vertex="1">
          <mxGeometry x="514.5" y="360" width="18" height="20" as="geometry" />
        </mxCell>
        <mxCell id="rm6uVH4t2GQNLEcWgGYT-18" value="&lt;span style=&quot;font-size: 14px; font-weight: normal;&quot;&gt;B&lt;/span&gt;" style="text;html=1;strokeColor=none;fillColor=none;align=center;verticalAlign=middle;whiteSpace=wrap;rounded=0;fontSize=14;fontFamily=Times New Roman;fontColor=default;fontStyle=3" parent="1" vertex="1">
          <mxGeometry x="655" y="235" width="25" height="20" as="geometry" />
        </mxCell>
        <mxCell id="rm6uVH4t2GQNLEcWgGYT-19" value="" style="endArrow=classic;html=1;rounded=0;labelBackgroundColor=default;strokeColor=default;align=center;verticalAlign=middle;fontFamily=Helvetica;fontSize=11;fontColor=default;shape=connector;" parent="1" edge="1">
          <mxGeometry width="50" height="50" relative="1" as="geometry">
            <mxPoint x="582.5" y="252.5" as="sourcePoint" />
            <mxPoint x="632.5" y="252.5" as="targetPoint" />
          </mxGeometry>
        </mxCell>
        <mxCell id="rm6uVH4t2GQNLEcWgGYT-20" value="" style="endArrow=classic;html=1;rounded=0;labelBackgroundColor=default;strokeColor=default;align=center;verticalAlign=middle;fontFamily=Helvetica;fontSize=11;fontColor=default;shape=connector;" parent="1" edge="1">
          <mxGeometry width="50" height="50" relative="1" as="geometry">
            <mxPoint x="549.5" y="340" as="sourcePoint" />
            <mxPoint x="549.5" y="300" as="targetPoint" />
          </mxGeometry>
        </mxCell>
        <mxCell id="rm6uVH4t2GQNLEcWgGYT-21" value="" style="endArrow=classic;html=1;rounded=0;labelBackgroundColor=default;strokeColor=default;align=center;verticalAlign=middle;fontFamily=Helvetica;fontSize=11;fontColor=default;shape=connector;" parent="1" edge="1">
          <mxGeometry width="50" height="50" relative="1" as="geometry">
            <mxPoint x="529.5" y="180" as="sourcePoint" />
            <mxPoint x="469.5" y="180" as="targetPoint" />
          </mxGeometry>
        </mxCell>
        <mxCell id="rm6uVH4t2GQNLEcWgGYT-22" value="&lt;span style=&quot;font-weight: 400;&quot;&gt;I&lt;sub&gt;C&lt;/sub&gt;&lt;/span&gt;" style="text;html=1;strokeColor=none;fillColor=none;align=center;verticalAlign=middle;whiteSpace=wrap;rounded=0;fontSize=14;fontFamily=Times New Roman;fontColor=default;fontStyle=3" parent="1" vertex="1">
          <mxGeometry x="484.5" y="155" width="30" height="30" as="geometry" />
        </mxCell>
        <mxCell id="rm6uVH4t2GQNLEcWgGYT-23" value="&lt;span style=&quot;font-weight: 400;&quot;&gt;I&lt;sub&gt;B&lt;/sub&gt;&lt;/span&gt;" style="text;html=1;strokeColor=none;fillColor=none;align=center;verticalAlign=middle;whiteSpace=wrap;rounded=0;fontSize=14;fontFamily=Times New Roman;fontColor=default;fontStyle=3" parent="1" vertex="1">
          <mxGeometry x="589.5" y="222.5" width="30" height="30" as="geometry" />
        </mxCell>
        <mxCell id="rm6uVH4t2GQNLEcWgGYT-24" value="&lt;span style=&quot;font-weight: 400;&quot;&gt;I&lt;span style=&quot;font-size: 11.6667px;&quot;&gt;&lt;sub&gt;E&lt;/sub&gt;&lt;/span&gt;&lt;/span&gt;" style="text;html=1;strokeColor=none;fillColor=none;align=center;verticalAlign=middle;whiteSpace=wrap;rounded=0;fontSize=14;fontFamily=Times New Roman;fontColor=default;fontStyle=3" parent="1" vertex="1">
          <mxGeometry x="549.5" y="310" width="25" height="20" as="geometry" />
        </mxCell>
        <mxCell id="rm6uVH4t2GQNLEcWgGYT-25" value="&lt;span style=&quot;font-weight: 400; font-size: 20px;&quot;&gt;Ra&lt;/span&gt;" style="text;html=1;strokeColor=none;fillColor=none;align=center;verticalAlign=middle;whiteSpace=wrap;rounded=0;fontSize=20;fontFamily=Times New Roman;fontColor=default;fontStyle=1" parent="1" vertex="1">
          <mxGeometry x="462.5" y="220" width="60" height="30" as="geometry" />
        </mxCell>
        <mxCell id="rm6uVH4t2GQNLEcWgGYT-26" value="&lt;span style=&quot;font-weight: 400; font-size: 20px;&quot;&gt;VÃ o&lt;/span&gt;" style="text;html=1;strokeColor=none;fillColor=none;align=center;verticalAlign=middle;whiteSpace=wrap;rounded=0;fontSize=20;fontFamily=Times New Roman;fontColor=default;fontStyle=1" parent="1" vertex="1">
          <mxGeometry x="579.5" y="285" width="60" height="30" as="geometry" />
        </mxCell>
        <mxCell id="rm6uVH4t2GQNLEcWgGYT-27" value="" style="shape=process;whiteSpace=wrap;html=1;backgroundOutline=1;fontFamily=Helvetica;fontSize=11;fontColor=default;rotation=90;size=0.4166666666666667;verticalAlign=middle;" parent="1" vertex="1">
          <mxGeometry x="170" y="250" width="120" height="60" as="geometry" />
        </mxCell>
        <mxCell id="rm6uVH4t2GQNLEcWgGYT-29" value="&lt;span style=&quot;font-size: 14px; font-weight: normal;&quot;&gt;p&lt;/span&gt;" style="text;html=1;strokeColor=#000000;fillColor=#99FFFF;align=center;verticalAlign=middle;whiteSpace=wrap;rounded=0;fontSize=14;fontFamily=Times New Roman;fontStyle=1" parent="1" vertex="1">
          <mxGeometry x="200" y="220" width="60" height="50" as="geometry" />
        </mxCell>
        <mxCell id="rm6uVH4t2GQNLEcWgGYT-30" value="&lt;span style=&quot;font-size: 14px; font-weight: normal;&quot;&gt;n&lt;/span&gt;" style="text;html=1;strokeColor=#000000;fillColor=#d0cee2;align=center;verticalAlign=middle;whiteSpace=wrap;rounded=0;fontSize=14;fontFamily=Times New Roman;fontStyle=1" parent="1" vertex="1">
          <mxGeometry x="200" y="270" width="60" height="20" as="geometry" />
        </mxCell>
        <mxCell id="rm6uVH4t2GQNLEcWgGYT-42" style="edgeStyle=orthogonalEdgeStyle;shape=connector;rounded=0;orthogonalLoop=1;jettySize=auto;html=1;exitX=0.5;exitY=1;exitDx=0;exitDy=0;labelBackgroundColor=default;strokeColor=default;align=center;verticalAlign=middle;fontFamily=Helvetica;fontSize=11;fontColor=default;endArrow=none;endFill=0;" parent="1" source="rm6uVH4t2GQNLEcWgGYT-31" edge="1">
          <mxGeometry relative="1" as="geometry">
            <mxPoint x="230" y="380" as="targetPoint" />
          </mxGeometry>
        </mxCell>
        <mxCell id="rm6uVH4t2GQNLEcWgGYT-31" value="&lt;span style=&quot;font-size: 14px; font-weight: normal;&quot;&gt;p&lt;/span&gt;" style="text;html=1;strokeColor=#000000;fillColor=#99FFFF;align=center;verticalAlign=middle;whiteSpace=wrap;rounded=0;fontSize=14;fontFamily=Times New Roman;fontStyle=1;labelBackgroundColor=none;labelBorderColor=none;" parent="1" vertex="1">
          <mxGeometry x="200" y="290" width="60" height="50" as="geometry" />
        </mxCell>
        <mxCell id="rm6uVH4t2GQNLEcWgGYT-36" style="edgeStyle=orthogonalEdgeStyle;shape=connector;rounded=0;orthogonalLoop=1;jettySize=auto;html=1;exitDx=0;exitDy=0;entryX=0;entryY=0.5;entryDx=0;entryDy=0;labelBackgroundColor=default;strokeColor=default;align=center;verticalAlign=middle;fontFamily=Helvetica;fontSize=11;fontColor=default;endArrow=none;endFill=0;" parent="1" source="rm6uVH4t2GQNLEcWgGYT-54" target="rm6uVH4t2GQNLEcWgGYT-30" edge="1">
          <mxGeometry relative="1" as="geometry" />
        </mxCell>
        <mxCell id="rm6uVH4t2GQNLEcWgGYT-35" value="" style="pointerEvents=1;verticalLabelPosition=bottom;shadow=0;dashed=0;align=center;html=1;verticalAlign=top;shape=mxgraph.electrical.miscellaneous.batteryStack;rotation=90;" parent="1" vertex="1">
          <mxGeometry x="70" y="310" width="50" height="40" as="geometry" />
        </mxCell>
        <mxCell id="rm6uVH4t2GQNLEcWgGYT-40" value="" style="pointerEvents=1;verticalLabelPosition=bottom;shadow=0;dashed=0;align=center;html=1;verticalAlign=top;shape=mxgraph.electrical.signal_sources.signal_ground;fontFamily=Helvetica;fontSize=11;fontColor=default;" parent="1" vertex="1">
          <mxGeometry x="217.5" y="380" width="25" height="20" as="geometry" />
        </mxCell>
        <mxCell id="rm6uVH4t2GQNLEcWgGYT-41" style="edgeStyle=orthogonalEdgeStyle;shape=connector;rounded=0;orthogonalLoop=1;jettySize=auto;html=1;exitX=0;exitY=0.5;exitDx=0;exitDy=0;entryX=0.5;entryY=0;entryDx=0;entryDy=0;entryPerimeter=0;labelBackgroundColor=default;strokeColor=default;align=center;verticalAlign=middle;fontFamily=Helvetica;fontSize=11;fontColor=default;endArrow=none;endFill=0;" parent="1" edge="1">
          <mxGeometry relative="1" as="geometry">
            <mxPoint x="345" y="300" as="sourcePoint" />
            <mxPoint x="230" y="375" as="targetPoint" />
            <Array as="points">
              <mxPoint x="345" y="375" />
            </Array>
          </mxGeometry>
        </mxCell>
        <mxCell id="rm6uVH4t2GQNLEcWgGYT-43" style="edgeStyle=orthogonalEdgeStyle;shape=connector;rounded=0;orthogonalLoop=1;jettySize=auto;html=1;exitX=0;exitY=0.5;exitDx=0;exitDy=0;entryX=0.5;entryY=0;entryDx=0;entryDy=0;entryPerimeter=0;labelBackgroundColor=default;strokeColor=default;align=center;verticalAlign=middle;fontFamily=Helvetica;fontSize=11;fontColor=default;endArrow=none;endFill=0;" parent="1" source="rm6uVH4t2GQNLEcWgGYT-35" target="rm6uVH4t2GQNLEcWgGYT-40" edge="1">
          <mxGeometry relative="1" as="geometry">
            <Array as="points">
              <mxPoint x="95" y="375" />
              <mxPoint x="230" y="375" />
            </Array>
          </mxGeometry>
        </mxCell>
        <mxCell id="rm6uVH4t2GQNLEcWgGYT-44" value="" style="endArrow=classic;html=1;rounded=0;labelBackgroundColor=default;strokeColor=default;align=center;verticalAlign=middle;fontFamily=Helvetica;fontSize=11;fontColor=default;shape=connector;" parent="1" edge="1">
          <mxGeometry width="50" height="50" relative="1" as="geometry">
            <mxPoint x="240" y="370" as="sourcePoint" />
            <mxPoint x="240" y="345" as="targetPoint" />
          </mxGeometry>
        </mxCell>
        <mxCell id="rm6uVH4t2GQNLEcWgGYT-45" value="&lt;span style=&quot;font-weight: 400;&quot;&gt;I&lt;span style=&quot;font-size: 11.6667px;&quot;&gt;&lt;sub&gt;E&lt;/sub&gt;&lt;/span&gt;&lt;/span&gt;" style="text;html=1;strokeColor=none;fillColor=none;align=center;verticalAlign=middle;whiteSpace=wrap;rounded=0;fontSize=14;fontFamily=Times New Roman;fontColor=default;fontStyle=3" parent="1" vertex="1">
          <mxGeometry x="241" y="341" width="17.5" height="30" as="geometry" />
        </mxCell>
        <mxCell id="rm6uVH4t2GQNLEcWgGYT-48" value="" style="endArrow=classic;html=1;rounded=0;labelBackgroundColor=default;strokeColor=default;align=center;verticalAlign=middle;fontFamily=Helvetica;fontSize=11;fontColor=default;shape=connector;" parent="1" edge="1">
          <mxGeometry width="50" height="50" relative="1" as="geometry">
            <mxPoint x="242.5" y="170" as="sourcePoint" />
            <mxPoint x="303.5" y="170" as="targetPoint" />
          </mxGeometry>
        </mxCell>
        <mxCell id="rm6uVH4t2GQNLEcWgGYT-49" value="&lt;span style=&quot;font-weight: 400;&quot;&gt;I&lt;sub&gt;C&lt;/sub&gt;&lt;/span&gt;" style="text;html=1;strokeColor=none;fillColor=none;align=center;verticalAlign=middle;whiteSpace=wrap;rounded=0;fontSize=14;fontFamily=Times New Roman;fontColor=default;fontStyle=3" parent="1" vertex="1">
          <mxGeometry x="258" y="140" width="30" height="30" as="geometry" />
        </mxCell>
        <mxCell id="rm6uVH4t2GQNLEcWgGYT-50" value="" style="endArrow=classic;html=1;rounded=0;labelBackgroundColor=default;strokeColor=default;align=center;verticalAlign=middle;fontFamily=Helvetica;fontSize=11;fontColor=default;shape=connector;exitX=1;exitY=1;exitDx=0;exitDy=0;" parent="1" edge="1" source="rm6uVH4t2GQNLEcWgGYT-51">
          <mxGeometry width="50" height="50" relative="1" as="geometry">
            <mxPoint x="160" y="269.84" as="sourcePoint" />
            <mxPoint x="130" y="269.84" as="targetPoint" />
          </mxGeometry>
        </mxCell>
        <mxCell id="rm6uVH4t2GQNLEcWgGYT-51" value="&lt;span style=&quot;font-weight: 400;&quot;&gt;I&lt;sub&gt;B&lt;/sub&gt;&lt;/span&gt;" style="text;html=1;strokeColor=none;fillColor=none;align=center;verticalAlign=middle;whiteSpace=wrap;rounded=0;fontSize=14;fontFamily=Times New Roman;fontColor=default;fontStyle=3" parent="1" vertex="1">
          <mxGeometry x="140" y="240" width="30" height="30" as="geometry" />
        </mxCell>
        <mxCell id="rm6uVH4t2GQNLEcWgGYT-52" value="&lt;span style=&quot;font-weight: 400;&quot;&gt;V&lt;sub&gt;CC&lt;/sub&gt;&lt;/span&gt;" style="text;html=1;strokeColor=none;fillColor=none;align=center;verticalAlign=middle;whiteSpace=wrap;rounded=0;fontSize=14;fontFamily=Times New Roman;fontColor=default;fontStyle=3" parent="1" vertex="1">
          <mxGeometry x="370" y="265" width="30" height="30" as="geometry" />
        </mxCell>
        <mxCell id="rm6uVH4t2GQNLEcWgGYT-53" value="&lt;span style=&quot;font-weight: 400;&quot;&gt;V&lt;sub&gt;BB&lt;/sub&gt;&lt;/span&gt;" style="text;html=1;strokeColor=none;fillColor=none;align=center;verticalAlign=middle;whiteSpace=wrap;rounded=0;fontSize=14;fontFamily=Times New Roman;fontColor=default;fontStyle=3" parent="1" vertex="1">
          <mxGeometry x="40" y="315" width="30" height="30" as="geometry" />
        </mxCell>
        <mxCell id="rm6uVH4t2GQNLEcWgGYT-55" value="" style="edgeStyle=orthogonalEdgeStyle;shape=connector;rounded=0;orthogonalLoop=1;jettySize=auto;html=1;exitX=1;exitY=0.5;exitDx=0;exitDy=0;entryDx=0;entryDy=0;labelBackgroundColor=default;strokeColor=default;align=center;verticalAlign=middle;fontFamily=Helvetica;fontSize=11;fontColor=default;endArrow=none;endFill=0;" parent="1" edge="1" source="rm6uVH4t2GQNLEcWgGYT-35">
          <mxGeometry relative="1" as="geometry">
            <mxPoint x="95" y="298" as="sourcePoint" />
            <mxPoint x="200" y="271" as="targetPoint" />
            <Array as="points">
              <mxPoint x="95" y="278" />
              <mxPoint x="200" y="278" />
            </Array>
          </mxGeometry>
        </mxCell>
        <mxCell id="rm6uVH4t2GQNLEcWgGYT-54" value="" style="shape=waypoint;sketch=0;size=6;pointerEvents=1;points=[];fillColor=none;resizable=0;rotatable=0;perimeter=centerPerimeter;snapToPoint=1;fontFamily=Helvetica;fontSize=11;fontColor=default;" parent="1" vertex="1">
          <mxGeometry x="190" y="268" width="20" height="20" as="geometry" />
        </mxCell>
        <mxCell id="rm6uVH4t2GQNLEcWgGYT-57" value="" style="shape=waypoint;sketch=0;size=6;pointerEvents=1;points=[];fillColor=none;resizable=0;rotatable=0;perimeter=centerPerimeter;snapToPoint=1;fontFamily=Helvetica;fontSize=11;fontColor=default;" parent="1" vertex="1">
          <mxGeometry x="220" y="210" width="20" height="20" as="geometry" />
        </mxCell>
        <mxCell id="rm6uVH4t2GQNLEcWgGYT-58" value="" style="shape=waypoint;sketch=0;size=6;pointerEvents=1;points=[];fillColor=none;resizable=0;rotatable=0;perimeter=centerPerimeter;snapToPoint=1;fontFamily=Helvetica;fontSize=11;fontColor=default;" parent="1" vertex="1">
          <mxGeometry x="220" y="330" width="20" height="20" as="geometry" />
        </mxCell>
        <mxCell id="rm6uVH4t2GQNLEcWgGYT-59" value="&lt;span style=&quot;font-size: 14px; font-weight: normal;&quot;&gt;C&lt;/span&gt;" style="text;html=1;strokeColor=none;fillColor=none;align=center;verticalAlign=middle;whiteSpace=wrap;rounded=0;fontSize=14;fontFamily=Times New Roman;fontColor=default;fontStyle=3" parent="1" vertex="1">
          <mxGeometry x="217.5" y="190" width="60" height="30" as="geometry" />
        </mxCell>
        <mxCell id="rm6uVH4t2GQNLEcWgGYT-60" value="&lt;span style=&quot;font-size: 14px; font-weight: normal;&quot;&gt;B&lt;/span&gt;" style="text;html=1;strokeColor=none;fillColor=none;align=center;verticalAlign=middle;whiteSpace=wrap;rounded=0;fontSize=14;fontFamily=Times New Roman;fontColor=default;fontStyle=3" parent="1" vertex="1">
          <mxGeometry x="157.5" y="280" width="60" height="30" as="geometry" />
        </mxCell>
        <mxCell id="rm6uVH4t2GQNLEcWgGYT-61" value="&lt;span style=&quot;font-size: 14px; font-weight: normal;&quot;&gt;E&lt;/span&gt;" style="text;html=1;strokeColor=none;fillColor=none;align=center;verticalAlign=middle;whiteSpace=wrap;rounded=0;fontSize=14;fontFamily=Times New Roman;fontColor=default;fontStyle=3" parent="1" vertex="1">
          <mxGeometry x="210" y="340" width="21.5" height="14" as="geometry" />
        </mxCell>
        <mxCell id="rm6uVH4t2GQNLEcWgGYT-63" value="" style="verticalLabelPosition=bottom;verticalAlign=top;html=1;strokeWidth=2;shape=mxgraph.arrows2.arrow;dy=0.49;dx=22.4;notch=0;fontFamily=Helvetica;fontSize=11;rotation=-90;fillColor=#3399FF;strokeColor=#3399FF;" parent="1" vertex="1">
          <mxGeometry x="240" y="265" width="105" height="30" as="geometry" />
        </mxCell>
        <mxCell id="rm6uVH4t2GQNLEcWgGYT-68" value="" style="verticalLabelPosition=bottom;verticalAlign=top;html=1;strokeWidth=2;shape=mxgraph.arrows2.arrow;dy=0.32;dx=10.56;notch=0;fontFamily=Helvetica;fontSize=11;fontColor=default;rotation=-180;fillColor=#3399FF;strokeColor=#3399FF;" parent="1" vertex="1">
          <mxGeometry x="269" y="275" width="19" height="10" as="geometry" />
        </mxCell>
        <mxCell id="IMliBgTj_xjAzbl9Rg4K-7" style="edgeStyle=orthogonalEdgeStyle;rounded=0;orthogonalLoop=1;jettySize=auto;html=1;exitX=0;exitY=0.5;exitDx=0;exitDy=0;exitPerimeter=0;endArrow=none;endFill=0;" edge="1" parent="1" source="IMliBgTj_xjAzbl9Rg4K-5" target="rm6uVH4t2GQNLEcWgGYT-12">
          <mxGeometry relative="1" as="geometry" />
        </mxCell>
        <mxCell id="IMliBgTj_xjAzbl9Rg4K-8" style="edgeStyle=orthogonalEdgeStyle;shape=connector;rounded=0;orthogonalLoop=1;jettySize=auto;html=1;exitX=0.7;exitY=0;exitDx=0;exitDy=0;exitPerimeter=0;labelBackgroundColor=default;strokeColor=default;align=center;verticalAlign=middle;fontFamily=Helvetica;fontSize=11;fontColor=default;endArrow=none;endFill=0;" edge="1" parent="1" source="IMliBgTj_xjAzbl9Rg4K-5" target="rm6uVH4t2GQNLEcWgGYT-8">
          <mxGeometry relative="1" as="geometry" />
        </mxCell>
        <mxCell id="IMliBgTj_xjAzbl9Rg4K-5" value="" style="verticalLabelPosition=bottom;shadow=0;dashed=0;align=center;html=1;verticalAlign=top;shape=mxgraph.electrical.transistors.pnp_transistor_1;rotation=-180;fillColor=#99FFFF;strokeColor=#000000;strokeWidth=1;" vertex="1" parent="1">
          <mxGeometry x="522.5" y="225" width="57" height="75" as="geometry" />
        </mxCell>
        <mxCell id="IMliBgTj_xjAzbl9Rg4K-9" style="edgeStyle=orthogonalEdgeStyle;shape=connector;rounded=0;orthogonalLoop=1;jettySize=auto;html=1;exitX=0.7;exitY=1;exitDx=0;exitDy=0;exitPerimeter=0;labelBackgroundColor=default;strokeColor=default;align=center;verticalAlign=middle;fontFamily=Helvetica;fontSize=11;fontColor=default;endArrow=none;endFill=0;" edge="1" parent="1" source="IMliBgTj_xjAzbl9Rg4K-5">
          <mxGeometry relative="1" as="geometry">
            <mxPoint x="452.5" y="190" as="targetPoint" />
            <Array as="points">
              <mxPoint x="539.5" y="190" />
            </Array>
          </mxGeometry>
        </mxCell>
      </root>
    </mxGraphModel>
  </diagram>
</mxfile>
